<svg xmlns="http://www.w3.org/2000/svg" xmlns:xlink="http://www.w3.org/1999/xlink" width="500" zoomAndPan="magnify" viewBox="0 0 375 374.999991" height="500" preserveAspectRatio="xMidYMid meet" version="1.0"><defs><g/></defs><g fill="#3a1012" fill-opacity="1"><g transform="translate(213.706206, 324.314643)"><g><path d="M 5.703125 -93.40625 L 3.453125 -93.40625 L 9.171875 -126.109375 L 118.84375 -126.109375 L 124.546875 -93.40625 L 122.296875 -93.40625 C 120.910156 -101.132812 118.546875 -107.21875 115.203125 -111.65625 C 111.859375 -116.101562 107.707031 -119.25 102.75 -121.09375 C 97.789062 -122.9375 92.195312 -123.859375 85.96875 -123.859375 L 73.515625 -123.859375 L 73.515625 -11.59375 C 73.515625 -7.664062 74.492188 -5.125 76.453125 -3.96875 C 78.421875 -2.820312 81.476562 -2.25 85.625 -2.25 L 85.625 0 L 42.546875 0 L 42.546875 -2.25 C 46.703125 -2.25 49.726562 -2.820312 51.625 -3.96875 C 53.53125 -5.125 54.484375 -7.664062 54.484375 -11.59375 L 54.484375 -123.859375 L 41.859375 -123.859375 C 35.742188 -123.859375 30.207031 -122.9375 25.25 -121.09375 C 20.289062 -119.25 16.164062 -116.101562 12.875 -111.65625 C 9.59375 -107.21875 7.203125 -101.132812 5.703125 -93.40625 Z M 5.703125 -93.40625 "/></g></g></g><g fill="#3a1012" fill-opacity="1"><g transform="translate(341.711765, 324.314643)"><g><path d="M 8.65625 -7.609375 C 8.65625 -10.265625 9.601562 -12.539062 11.5 -14.4375 C 13.40625 -16.34375 15.6875 -17.296875 18.34375 -17.296875 C 20.988281 -17.296875 23.265625 -16.34375 25.171875 -14.4375 C 27.078125 -12.539062 28.03125 -10.265625 28.03125 -7.609375 C 28.03125 -4.953125 27.078125 -2.671875 25.171875 -0.765625 C 23.265625 1.128906 20.988281 2.078125 18.34375 2.078125 C 15.6875 2.078125 13.40625 1.128906 11.5 -0.765625 C 9.601562 -2.671875 8.65625 -4.953125 8.65625 -7.609375 Z M 8.65625 -7.609375 "/></g></g></g><g fill="#ffffff" fill-opacity="1"><g transform="translate(-13.219873, 326.9178)"><g><path d="M -0.527344 0 L -0.527344 -147.640625 L 48.023438 -147.640625 L 48.023438 -126.097656 C 48.023438 -101.199219 51.4375 -81.277344 58.265625 -66.324219 C 64.539062 -52.585938 72.769531 -42.660156 82.960938 -36.546875 C 93.558594 -30.1875 105.417969 -27.007812 118.53125 -27.007812 C 126.640625 -27.007812 133.917969 -28.183594 140.359375 -30.535156 C 145.023438 -32.234375 148.722656 -35 151.464844 -38.824219 C 154.101562 -42.496094 155.417969 -48.191406 155.417969 -55.902344 C 155.417969 -62.851562 153.160156 -69.304688 148.644531 -75.265625 C 142.429688 -83.476562 134.167969 -91.460938 123.859375 -99.222656 C 112.265625 -107.953125 100.046875 -116.621094 87.203125 -125.226562 C 73.53125 -134.390625 60.503906 -143.925781 48.121094 -153.832031 C 34.453125 -164.765625 23.285156 -176.777344 14.617188 -189.859375 C 4.800781 -204.675781 -0.105469 -220.972656 -0.105469 -238.746094 C -0.105469 -260.179688 5.960938 -278.210938 18.09375 -292.847656 C 29.269531 -306.328125 43.292969 -316.410156 60.164062 -323.085938 C 76.164062 -329.421875 92.394531 -332.585938 108.867188 -332.585938 C 121.507812 -332.585938 132.5 -331.265625 141.84375 -328.621094 C 150.859375 -326.066406 158.75 -322.921875 165.519531 -319.179688 C 170.503906 -316.425781 174.992188 -314.082031 178.984375 -312.152344 C 180.367188 -311.484375 181.511719 -311.148438 182.421875 -311.148438 C 182.863281 -311.148438 183.195312 -311.164062 183.417969 -311.195312 C 183.246094 -311.171875 182.992188 -311.101562 182.652344 -310.988281 C 180.417969 -310.246094 178.457031 -308.789062 176.769531 -306.617188 C 175.78125 -305.347656 175.179688 -304.238281 174.964844 -303.285156 C 175.105469 -303.894531 175.171875 -304.9375 175.171875 -306.421875 L 175.171875 -327.960938 L 223.71875 -327.960938 L 223.71875 -185.679688 L 175.171875 -185.679688 L 175.171875 -207.222656 C 175.171875 -222.578125 172.371094 -235.804688 166.765625 -246.902344 C 161.398438 -257.527344 154.21875 -265.707031 145.21875 -271.433594 C 136.417969 -277.035156 126.261719 -279.835938 114.75 -279.835938 C 108.660156 -279.835938 103.703125 -279.199219 99.878906 -277.933594 C 97.417969 -277.117188 95.628906 -276.097656 94.515625 -274.878906 C 90.980469 -271.003906 89.214844 -265.6875 89.214844 -258.921875 C 89.214844 -249.683594 91.578125 -241.65625 96.304688 -234.839844 C 102.25 -226.265625 110.019531 -218.40625 119.621094 -211.265625 C 130.667969 -203.050781 142.398438 -195.027344 154.820312 -187.195312 C 168.367188 -178.65625 181.1875 -169.59375 193.28125 -160.003906 C 206.613281 -149.4375 217.558594 -137.566406 226.125 -124.386719 C 235.730469 -109.609375 240.535156 -92.527344 240.535156 -73.136719 C 240.535156 -55.527344 236.933594 -39.347656 229.734375 -24.597656 C 221.941406 -8.632812 209.261719 4.015625 191.6875 13.347656 C 175.078125 22.171875 153.074219 26.585938 125.679688 26.585938 C 112.421875 26.585938 101.011719 25.390625 91.453125 23 C 82.285156 20.707031 74.210938 17.945312 67.230469 14.710938 C 61.769531 12.179688 56.800781 9.992188 52.324219 8.148438 C 50.1875 7.269531 48.019531 6.832031 45.816406 6.832031 C 44.386719 6.832031 43.332031 6.917969 42.652344 7.089844 C 43.074219 6.980469 43.640625 6.65625 44.359375 6.109375 C 45.710938 5.082031 46.730469 3.78125 47.421875 2.207031 C 47.820312 1.292969 48.023438 0.554688 48.023438 0 L 48.023438 21.542969 L -0.527344 21.542969 Z M 42.558594 0 L 21.015625 0 L 21.015625 -21.542969 L 26.480469 -21.542969 L 26.480469 0 L 4.9375 0 C 4.9375 -5.460938 5.945312 -10.488281 7.957031 -15.082031 C 10.257812 -20.332031 13.695312 -24.695312 18.269531 -28.175781 C 25.347656 -33.5625 34.527344 -36.253906 45.816406 -36.253906 C 53.699219 -36.253906 61.339844 -34.730469 68.730469 -31.6875 C 73.78125 -29.609375 79.320312 -27.171875 85.347656 -24.378906 C 89.855469 -22.289062 95.375 -20.429688 101.902344 -18.796875 C 108.03125 -17.265625 115.957031 -16.496094 125.679688 -16.496094 C 145.917969 -16.496094 161.183594 -19.230469 171.476562 -24.699219 C 180.804688 -29.65625 187.320312 -35.921875 191.015625 -43.496094 C 195.304688 -52.285156 197.449219 -62.164062 197.449219 -73.136719 C 197.449219 -84.011719 194.96875 -93.269531 190 -100.910156 C 183.996094 -110.148438 176.167969 -118.59375 166.519531 -126.242188 C 155.636719 -134.867188 144.078125 -143.035156 131.84375 -150.75 C 118.484375 -159.171875 105.839844 -167.820312 93.90625 -176.699219 C 80.527344 -186.648438 69.527344 -197.847656 60.898438 -210.289062 C 51.054688 -224.488281 46.132812 -240.699219 46.132812 -258.921875 C 46.132812 -276.820312 51.648438 -291.816406 62.6875 -303.914062 C 74.246094 -316.585938 91.597656 -322.917969 114.75 -322.917969 C 134.625 -322.917969 152.492188 -317.871094 168.347656 -307.78125 C 184.007812 -297.816406 196.300781 -283.996094 205.226562 -266.320312 C 213.914062 -249.117188 218.257812 -229.417969 218.257812 -207.222656 L 196.714844 -207.222656 L 196.714844 -228.765625 L 202.179688 -228.765625 L 202.179688 -207.222656 L 180.636719 -207.222656 L 180.636719 -306.421875 L 202.179688 -306.421875 L 202.179688 -284.878906 L 196.714844 -284.878906 L 196.714844 -306.421875 L 218.257812 -306.421875 C 218.257812 -295.328125 215.761719 -286.578125 210.777344 -280.164062 C 204.503906 -272.097656 195.050781 -268.066406 182.421875 -268.066406 C 174.929688 -268.066406 167.527344 -269.832031 160.21875 -273.367188 C 155.527344 -275.640625 150.347656 -278.339844 144.683594 -281.472656 C 140.804688 -283.613281 135.945312 -285.511719 130.109375 -287.164062 C 124.601562 -288.722656 117.519531 -289.503906 108.867188 -289.503906 C 97.875 -289.503906 86.925781 -287.34375 76.023438 -283.027344 C 65.992188 -279.058594 57.738281 -273.167969 51.261719 -265.351562 C 45.738281 -258.691406 42.980469 -249.820312 42.980469 -238.746094 C 42.980469 -229.621094 45.496094 -221.257812 50.535156 -213.65625 C 56.714844 -204.324219 64.882812 -195.597656 75.035156 -187.476562 C 86.472656 -178.328125 98.523438 -169.507812 111.191406 -161.015625 C 124.6875 -151.96875 137.550781 -142.84375 149.773438 -133.640625 C 163.285156 -123.46875 174.359375 -112.679688 182.996094 -101.273438 C 193.332031 -87.621094 198.5 -72.496094 198.5 -55.902344 C 198.5 -38.957031 194.492188 -24.894531 186.480469 -13.71875 C 178.574219 -2.691406 168.125 5.195312 155.132812 9.9375 C 143.921875 14.03125 131.722656 16.078125 118.53125 16.078125 C 97.460938 16.078125 78.214844 10.851562 60.792969 0.398438 C 42.960938 -10.300781 29.054688 -26.578125 19.074219 -48.425781 C 9.652344 -69.0625 4.9375 -94.953125 4.9375 -126.097656 L 26.480469 -126.097656 L 26.480469 -104.558594 L 21.015625 -104.558594 L 21.015625 -126.097656 L 42.558594 -126.097656 Z M 42.558594 0 "/></g></g></g><g fill="#074a3f" fill-opacity="1"><g transform="translate(-13.219873, 326.9178)"><g><path d="M 21.015625 0 L 21.015625 -126.09375 L 26.484375 -126.09375 C 26.484375 -98.070312 30.546875 -75.164062 38.671875 -57.375 C 46.796875 -39.582031 57.863281 -26.484375 71.875 -18.078125 C 85.882812 -9.671875 101.4375 -5.46875 118.53125 -5.46875 C 129.175781 -5.46875 138.910156 -7.078125 147.734375 -10.296875 C 156.566406 -13.515625 163.644531 -18.835938 168.96875 -26.265625 C 174.289062 -33.691406 176.953125 -43.570312 176.953125 -55.90625 C 176.953125 -67.675781 173.238281 -78.460938 165.8125 -88.265625 C 158.394531 -98.078125 148.726562 -107.460938 136.8125 -116.421875 C 124.90625 -125.390625 112.363281 -134.285156 99.1875 -143.109375 C 86.019531 -151.941406 73.484375 -161.117188 61.578125 -170.640625 C 49.671875 -180.171875 40.003906 -190.539062 32.578125 -201.75 C 25.148438 -212.96875 21.4375 -225.300781 21.4375 -238.75 C 21.4375 -255 25.847656 -268.445312 34.671875 -279.09375 C 43.503906 -289.75 54.644531 -297.738281 68.09375 -303.0625 C 81.539062 -308.382812 95.128906 -311.046875 108.859375 -311.046875 C 119.515625 -311.046875 128.550781 -309.992188 135.96875 -307.890625 C 143.394531 -305.785156 149.769531 -303.257812 155.09375 -300.3125 C 160.425781 -297.375 165.265625 -294.851562 169.609375 -292.75 C 173.953125 -290.65625 178.222656 -289.609375 182.421875 -289.609375 C 188.023438 -289.609375 191.804688 -290.867188 193.765625 -293.390625 C 195.734375 -295.910156 196.71875 -300.253906 196.71875 -306.421875 L 202.171875 -306.421875 L 202.171875 -207.21875 L 196.71875 -207.21875 C 196.71875 -226 193.144531 -242.460938 186 -256.609375 C 178.851562 -270.765625 169.113281 -281.765625 156.78125 -289.609375 C 144.445312 -297.453125 130.4375 -301.375 114.75 -301.375 C 97.9375 -301.375 85.882812 -297.378906 78.59375 -289.390625 C 71.3125 -281.410156 67.671875 -271.253906 67.671875 -258.921875 C 67.671875 -245.191406 71.3125 -233.070312 78.59375 -222.5625 C 85.882812 -212.050781 95.273438 -202.519531 106.765625 -193.96875 C 118.253906 -185.425781 130.441406 -177.09375 143.328125 -168.96875 C 156.222656 -160.84375 168.414062 -152.226562 179.90625 -143.125 C 191.394531 -134.019531 200.78125 -123.859375 208.0625 -112.640625 C 215.34375 -101.429688 218.984375 -88.265625 218.984375 -73.140625 C 218.984375 -58.847656 216.109375 -45.816406 210.359375 -34.046875 C 204.617188 -22.273438 195.023438 -12.816406 181.578125 -5.671875 C 168.128906 1.472656 149.492188 5.046875 125.671875 5.046875 C 114.179688 5.046875 104.515625 4.0625 96.671875 2.09375 C 88.828125 0.132812 82.03125 -2.171875 76.28125 -4.828125 C 70.539062 -7.492188 65.285156 -9.804688 60.515625 -11.765625 C 55.753906 -13.734375 50.851562 -14.71875 45.8125 -14.71875 C 32.925781 -14.71875 26.484375 -9.8125 26.484375 0 Z M 21.015625 0 "/></g></g></g><g fill="#3a1012" fill-opacity="1"><g transform="translate(102.217922, 353.73818)"><g><path d="M 4.65625 -5.65625 C 2.207031 -6.21875 0.984375 -7.265625 0.984375 -8.796875 C 0.984375 -9.921875 1.378906 -10.765625 2.171875 -11.328125 C 2.953125 -11.878906 3.875 -12.15625 4.9375 -12.15625 C 7.269531 -12.15625 8.65625 -11.285156 9.09375 -9.546875 L 7.75 -9.546875 C 7.519531 -10.585938 6.582031 -11.109375 4.9375 -11.109375 C 3.78125 -11.109375 2.972656 -10.765625 2.515625 -10.078125 C 2.335938 -9.816406 2.25 -9.492188 2.25 -9.109375 C 2.25 -8.367188 2.648438 -7.800781 3.453125 -7.40625 C 3.828125 -7.207031 4.625 -6.945312 5.84375 -6.625 C 7.070312 -6.3125 7.960938 -5.957031 8.515625 -5.5625 C 9.273438 -5.03125 9.65625 -4.273438 9.65625 -3.296875 C 9.65625 -2.085938 9.179688 -1.171875 8.234375 -0.546875 C 7.429688 -0.0234375 6.441406 0.234375 5.265625 0.234375 C 2.609375 0.234375 1.070312 -0.773438 0.65625 -2.796875 L 2.109375 -2.796875 C 2.335938 -1.535156 3.390625 -0.90625 5.265625 -0.90625 C 6.609375 -0.90625 7.546875 -1.273438 8.078125 -2.015625 C 8.285156 -2.304688 8.390625 -2.703125 8.390625 -3.203125 C 8.390625 -3.703125 8.195312 -4.109375 7.8125 -4.421875 C 7.257812 -4.867188 6.207031 -5.28125 4.65625 -5.65625 Z M 4.65625 -5.65625 "/></g></g></g><g fill="#3a1012" fill-opacity="1"><g transform="translate(117.419588, 353.73818)"><g><path d="M 11.875 -6.03125 C 11.875 -7.375 11.394531 -8.53125 10.4375 -9.5 C 9.46875 -10.457031 8.300781 -10.9375 6.9375 -10.9375 C 5.59375 -10.9375 4.4375 -10.457031 3.46875 -9.5 C 2.507812 -8.53125 2.03125 -7.375 2.03125 -6.03125 C 2.03125 -4.664062 2.507812 -3.5 3.46875 -2.53125 C 4.4375 -1.570312 5.59375 -1.09375 6.9375 -1.09375 C 8.300781 -1.09375 9.46875 -1.570312 10.4375 -2.53125 C 11.394531 -3.5 11.875 -4.664062 11.875 -6.03125 Z M 13.109375 -6.03125 C 13.109375 -5.1875 12.953125 -4.382812 12.640625 -3.625 C 12.304688 -2.875 11.863281 -2.222656 11.3125 -1.671875 C 10.75 -1.109375 10.09375 -0.671875 9.34375 -0.359375 C 8.59375 -0.0234375 7.789062 0.140625 6.9375 0.140625 C 6.09375 0.140625 5.300781 -0.0234375 4.5625 -0.359375 C 3.8125 -0.671875 3.160156 -1.109375 2.609375 -1.671875 C 2.046875 -2.222656 1.601562 -2.875 1.28125 -3.625 C 0.957031 -4.382812 0.796875 -5.1875 0.796875 -6.03125 C 0.796875 -6.875 0.957031 -7.671875 1.28125 -8.421875 C 1.601562 -9.171875 2.046875 -9.820312 2.609375 -10.375 C 3.160156 -10.925781 3.8125 -11.367188 4.5625 -11.703125 C 5.300781 -12.015625 6.09375 -12.171875 6.9375 -12.171875 C 7.789062 -12.171875 8.59375 -12.015625 9.34375 -11.703125 C 10.09375 -11.367188 10.75 -10.925781 11.3125 -10.375 C 11.863281 -9.820312 12.304688 -9.171875 12.640625 -8.421875 C 12.953125 -7.671875 13.109375 -6.875 13.109375 -6.03125 Z M 13.109375 -6.03125 "/></g></g></g><g fill="#3a1012" fill-opacity="1"><g transform="translate(136.408127, 353.73818)"><g><path d="M 2.5625 -1.234375 L 6.84375 -1.234375 L 6.84375 0 L 1.328125 0 L 1.328125 -11.984375 L 2.5625 -11.984375 Z M 2.5625 -1.234375 "/></g></g></g><g fill="#3a1012" fill-opacity="1"><g transform="translate(148.685978, 353.73818)"><g><path d="M 5.625 0.71875 L 0.171875 -11.984375 L 1.515625 -11.984375 L 5.625 -2.328125 L 9.71875 -11.984375 L 11.046875 -11.984375 Z M 5.625 0.71875 "/></g></g></g><g fill="#3a1012" fill-opacity="1"><g transform="translate(164.997286, 353.73818)"><g><path d="M 2.5625 0 L 1.328125 0 L 1.328125 -11.984375 L 2.5625 -11.984375 Z M 2.5625 0 "/></g></g></g><g fill="#3a1012" fill-opacity="1"><g transform="translate(173.963823, 353.73818)"><g><path d="M 11.875 -6.03125 C 11.875 -7.375 11.394531 -8.53125 10.4375 -9.5 C 9.46875 -10.457031 8.300781 -10.9375 6.9375 -10.9375 C 5.59375 -10.9375 4.4375 -10.457031 3.46875 -9.5 C 2.507812 -8.53125 2.03125 -7.375 2.03125 -6.03125 C 2.03125 -4.664062 2.507812 -3.5 3.46875 -2.53125 C 4.4375 -1.570312 5.59375 -1.09375 6.9375 -1.09375 C 8.300781 -1.09375 9.46875 -1.570312 10.4375 -2.53125 C 11.394531 -3.5 11.875 -4.664062 11.875 -6.03125 Z M 13.109375 -6.03125 C 13.109375 -5.1875 12.953125 -4.382812 12.640625 -3.625 C 12.304688 -2.875 11.863281 -2.222656 11.3125 -1.671875 C 10.75 -1.109375 10.09375 -0.671875 9.34375 -0.359375 C 8.59375 -0.0234375 7.789062 0.140625 6.9375 0.140625 C 6.09375 0.140625 5.300781 -0.0234375 4.5625 -0.359375 C 3.8125 -0.671875 3.160156 -1.109375 2.609375 -1.671875 C 2.046875 -2.222656 1.601562 -2.875 1.28125 -3.625 C 0.957031 -4.382812 0.796875 -5.1875 0.796875 -6.03125 C 0.796875 -6.875 0.957031 -7.671875 1.28125 -8.421875 C 1.601562 -9.171875 2.046875 -9.820312 2.609375 -10.375 C 3.160156 -10.925781 3.8125 -11.367188 4.5625 -11.703125 C 5.300781 -12.015625 6.09375 -12.171875 6.9375 -12.171875 C 7.789062 -12.171875 8.59375 -12.015625 9.34375 -11.703125 C 10.09375 -11.367188 10.75 -10.925781 11.3125 -10.375 C 11.863281 -9.820312 12.304688 -9.171875 12.640625 -8.421875 C 12.953125 -7.671875 13.109375 -6.875 13.109375 -6.03125 Z M 13.109375 -6.03125 "/></g></g></g><g fill="#074a3f" fill-opacity="1"><g transform="translate(192.956201, 353.73818)"><g/></g></g><g fill="#074a3f" fill-opacity="1"><g transform="translate(202.803406, 353.73818)"><g><path d="M 0.359375 -10.875 L 0.359375 -12.015625 L 7.40625 -12.015625 L 7.40625 -10.875 L 4.5 -10.875 L 4.5 -0.03125 L 3.265625 -0.03125 L 3.265625 -10.875 Z M 0.359375 -10.875 "/></g></g></g><g fill="#074a3f" fill-opacity="1"><g transform="translate(215.644878, 353.73818)"><g><path d="M 8.4375 0 L 1.328125 0 L 1.328125 -11.984375 L 8.4375 -11.984375 L 8.4375 -10.84375 L 2.5625 -10.84375 L 2.5625 -6.578125 L 8.265625 -6.578125 L 8.265625 -5.40625 L 2.5625 -5.40625 L 2.5625 -1.140625 L 8.4375 -1.140625 Z M 8.4375 0 "/></g></g></g><g fill="#074a3f" fill-opacity="1"><g transform="translate(230.494273, 353.73818)"><g><path d="M 12.3125 -3.671875 C 11.875 -2.515625 11.148438 -1.59375 10.140625 -0.90625 C 9.109375 -0.1875 7.984375 0.171875 6.765625 0.171875 C 5.109375 0.171875 3.691406 -0.4375 2.515625 -1.65625 C 1.367188 -2.851562 0.796875 -4.289062 0.796875 -5.96875 C 0.796875 -6.800781 0.945312 -7.597656 1.25 -8.359375 C 1.550781 -9.097656 1.972656 -9.75 2.515625 -10.3125 C 3.691406 -11.53125 5.109375 -12.140625 6.765625 -12.140625 C 7.984375 -12.140625 9.097656 -11.796875 10.109375 -11.109375 C 11.117188 -10.398438 11.847656 -9.476562 12.296875 -8.34375 L 10.9375 -8.34375 C 10.289062 -9.519531 9.328125 -10.304688 8.046875 -10.703125 C 7.628906 -10.816406 7.144531 -10.875 6.59375 -10.875 C 6.039062 -10.875 5.476562 -10.742188 4.90625 -10.484375 C 4.320312 -10.210938 3.820312 -9.851562 3.40625 -9.40625 C 2.488281 -8.457031 2.03125 -7.3125 2.03125 -5.96875 C 2.03125 -4.644531 2.488281 -3.507812 3.40625 -2.5625 C 4.332031 -1.582031 5.453125 -1.09375 6.765625 -1.09375 C 7.660156 -1.09375 8.484375 -1.328125 9.234375 -1.796875 C 9.972656 -2.265625 10.550781 -2.890625 10.96875 -3.671875 Z M 12.3125 -3.671875 "/></g></g></g><g fill="#074a3f" fill-opacity="1"><g transform="translate(248.426007, 353.73818)"><g><path d="M 2.5625 0 L 1.328125 0 L 1.328125 -11.984375 L 2.5625 -11.984375 L 2.5625 -6.59375 L 8 -6.59375 L 8 -11.984375 L 9.234375 -11.984375 L 9.234375 0 L 8 0 L 8 -5.359375 L 2.5625 -5.359375 Z M 2.5625 0 "/></g></g></g></svg>